<svg id="Capa_1" xmlns="http://www.w3.org/2000/svg" viewBox="0 0 512 117.4"><style>.st0{fill:#525556}</style><path class="st0" d="M67.8 66.4c.5 1.2.6 2.5.3 4-.3 1.8-1.1 3.2-2.3 4.3-1.2 1-2.6 1.7-4.1 1.8-1.5.1-3.3 0-5.5-.4l-3.7-.7c-1.2-.2-2-.4-2.2-.6-.3-.2-.4-.4-.5-.8 0-.3.1-1.2.3-2.8l2.1-11 6.6 1.2c2.9.6 5 1.2 6.3 2 1.3.8 2.2 1.9 2.7 3zm.4-23c-1.2-.6-3.4-1.3-6.6-1.9l-5.5-1-2.3 12.3 5.6 1c2.9.5 5.1.7 6.6.5 1.5-.2 2.6-.8 3.5-1.6.9-.8 1.4-1.9 1.7-3.2.3-1.3.1-2.5-.4-3.6-.6-1.1-1.4-1.9-2.6-2.5zm49.2 15.3c0 32.4-26.3 58.7-58.7 58.7C26.3 117.4 0 91.1 0 58.7S26.3 0 58.7 0c32.4 0 58.7 26.3 58.7 58.7zM82.9 43.2c-1-2.2-2.7-4-5-5.5-.9-.6-2-1.1-3.2-1.6l1.7-8.9-8.6-1.6-1.6 8.3-5.5-1 1.6-8.3-8.6-1.6-1.6 8.3L39 28.8l-1.3 7 2 .4c1.3.2 2.2.5 2.6.9.4.3.7.7.8 1.2s0 1.4-.2 2.9l-5.3 28.2c-.3 1.5-.5 2.4-.8 2.8-.3.4-.7.7-1.2.8s-1.4.1-2.8-.2l-2-.3-1.3 7 13.1 2.4-1.6 8.3 8.6 1.6 1.5-8.3 4.9.9c.2.1.4.1.6.1l-1.5 8.3 8.6 1.6 1.7-9c1.5 0 2.8-.2 4-.3 3.2-.6 5.8-1.9 7.8-3.9 2-1.9 3.3-4.3 3.8-7 .4-2.3.3-4.4-.5-6.4-.7-2-1.9-3.7-3.5-5.1-1.1-1-2.8-2-5.1-3 2.3-.3 4.3-1 5.9-1.9 1.6-.9 2.9-2 3.8-3.4 1-1.4 1.7-2.9 2-4.6.5-2.2.2-4.4-.7-6.6zm108.4 28.7c0 21.2-13.9 45.5-43.3 45.5-15.5 0-23.2-6.7-23.2-18.3 0-4 .7-8 1.5-11.9l13.2-66.1h19.3l-7.7 37.3h.3c4.8-5.7 12.1-9.3 20.2-9.3 13.6.1 19.7 11.2 19.7 22.8zm-20.2 4c0-6.3-2.7-11.2-8.5-11.2-7 0-13.7 7.1-16 18.4l-1.2 5.3c-.3 2.1-.8 4.4-.7 7.2.1 4.6 2.9 7.2 7.3 7.2 11.2 0 19.1-15.4 19.1-26.9zm25.5 40h19.2l12.4-65.3H209l-12.4 65.3zm26.1-93.7c-5.9 0-11 4.4-11.1 10.9 0 5.7 4 9.4 9.3 9.4 6.2 0 11.3-4 11.3-10.8.1-5.8-3.9-9.5-9.5-9.5zm46.2 10.2L249.3 37l-2.7 13.7h-8.4l-2.7 14.6h8.3l-5.1 26c-.9 5-1.3 8.5-1.3 12.1 0 8.1 5.5 14 17 14 4.1 0 8.9-.5 11.3-1.5l2.3-15.1c-1.8.3-3.6.3-5.3.3-4.2 0-5.5-2.3-5.5-5.5 0-2.3.5-5.6 1.1-8.3l4.4-22.2h13.9l2.8-14.6h-13.9l3.4-18.1zm11 58.2c0 16.9 11.3 26.7 27.5 26.7 7.8 0 14.4-1.3 18.6-3.3l-.1-14.7c-3.4 1.3-7.3 2.7-12.9 2.7-7.2 0-12.8-4.6-12.8-13.5 0-12.3 8.4-23.9 22.2-23.9 3.9 0 6.6.7 8.8 1.6l4.7-14.7c-2.8-1.2-7.6-2.3-13.2-2.3-25 0-42.8 18.1-42.8 41.4zM403.4 76c0 23.9-16.3 41.4-39 41.4-16.5 0-27.6-10.8-27.6-27 0-22.7 15.7-41.2 39-41.2 17.5 0 27.6 12 27.6 26.8zm-19.9.1c0-6-2.5-12.4-10.3-12.4-11.1 0-16.7 16.2-16.5 26.3 0 7.6 3.7 12.7 10.4 12.7 10.6 0 16.4-15.3 16.4-26.6zm51.8-53.9c-5.9 0-11 4.4-11.1 10.9 0 5.7 4 9.4 9.4 9.4 6.2 0 11.3-4 11.3-10.8.1-5.8-3.9-9.5-9.6-9.5zm-26.1 93.7h19.2l12.4-65.3h-19.2l-12.4 65.3zm86.1-66.7c-8.7 0-16.8 3.7-22.9 12.3h-.3l1.3-10.8h-17.1c-.8 5.8-1.9 13-3.5 21.2l-8.3 44.1h19.2l5.5-29c2.7-14.4 10-22.3 16.3-22.3 4.8 0 6.4 3.2 6.4 7.8 0 2.4-.3 5.1-.7 7.3l-6.8 36.2h19.2l7.4-38c.5-3.2 1.1-8.1 1.1-11-.1-11.3-6.1-17.8-16.8-17.8z"/></svg>