<svg id="Layer_2" data-name="Layer 2" xmlns="http://www.w3.org/2000/svg" viewBox="0 0 90 90"><defs><style>.cls-1{fill:#fff}.cls-2{fill:#ff7227}.cls-3{fill:#ffa564;stroke:#ff7227;stroke-miterlimit:10;stroke-width:2px}.cls-4{fill:#5b5d6e}</style></defs><title>icon uveren.ru</title><rect class="cls-1" x="13.92" y="17.12" width="56.91" height="14.57" rx=".42" ry=".42"/><path class="cls-2" d="M70.1 17.84V31H14.65V17.84H70.1m.31-1.46H14.34a1.14 1.14 0 0 0-1.14 1.14v13.75a1.14 1.14 0 0 0 1.14 1.14h56.08a1.14 1.14 0 0 0 1.14-1.14V17.53a1.14 1.14 0 0 0-1.14-1.14z"/><path class="cls-3" d="M26.93 32.41H14.34a1.14 1.14 0 0 1-1.14-1.14V17.53a1.14 1.14 0 0 1 1.14-1.14h12.59a1.14 1.14 0 0 1 1.14 1.14v13.74a1.14 1.14 0 0 1-1.14 1.14z"/><path class="cls-2" d="M52.1 23.26H32.65a1.14 1.14 0 1 1 0-2.29H52.1a1.14 1.14 0 1 1 0 2.29zM65.84 27.83H44.09a1.14 1.14 0 1 1 0-2.29h21.75a1.14 1.14 0 1 1 0 2.29zM39.51 27.83h-6.86a1.14 1.14 0 1 1 0-2.29h6.87a1.14 1.14 0 0 1 0 2.29z"/><path class="cls-1" d="M20.63 26.69a1.14 1.14 0 0 1 0-2.29 1.72 1.72 0 1 0-1.72-1.72 1.14 1.14 0 1 1-2.29 0 4 4 0 1 1 4 4zM20.64 30.12a1.14 1.14 0 0 1 0-2.29 1.14 1.14 0 0 1 0 2.29z"/><path class="cls-4" d="M70.1 38.44v13.12H14.65V38.44H70.1m.32-1.44H14.34a1.14 1.14 0 0 0-1.14 1.14v13.73A1.14 1.14 0 0 0 14.34 53h56.08a1.14 1.14 0 0 0 1.14-1.14V38.13A1.14 1.14 0 0 0 70.42 37z"/><path class="cls-4" d="M26.93 53H14.34a1.14 1.14 0 0 1-1.14-1.14V38.13A1.14 1.14 0 0 1 14.34 37h12.59a1.14 1.14 0 0 1 1.14 1.14v13.73A1.14 1.14 0 0 1 26.93 53zM52.1 43.86H32.65a1.14 1.14 0 1 1 0-2.29H52.1a1.14 1.14 0 1 1 0 2.29zM39.51 48.43h-6.86a1.14 1.14 0 0 1 0-2.29h6.87a1.14 1.14 0 0 1 0 2.29z"/><path class="cls-1" d="M20.63 47.29a1.14 1.14 0 0 1 0-2.29 1.72 1.72 0 1 0-1.72-1.72 1.14 1.14 0 1 1-2.29 0 4 4 0 1 1 4 4zM20.64 50.72a1.14 1.14 0 0 1 0-2.29 1.14 1.14 0 0 1 0 2.29z"/><path class="cls-4" d="M70.1 59v13.16H14.65V59H70.1m.31-1.46H14.34a1.14 1.14 0 0 0-1.14 1.14v13.79a1.14 1.14 0 0 0 1.14 1.14h56.08a1.14 1.14 0 0 0 1.14-1.14V58.73a1.14 1.14 0 0 0-1.14-1.14z"/><path class="cls-4" d="M26.93 73.61H14.34a1.14 1.14 0 0 1-1.14-1.14V58.73a1.14 1.14 0 0 1 1.14-1.14h12.59a1.14 1.14 0 0 1 1.14 1.14v13.74a1.14 1.14 0 0 1-1.14 1.14zM52.1 64.46H32.65a1.14 1.14 0 1 1 0-2.29H52.1a1.14 1.14 0 1 1 0 2.29zM39.51 69h-6.86a1.14 1.14 0 1 1 0-2.29h6.87a1.14 1.14 0 0 1 0 2.29z"/><path class="cls-1" d="M20.63 67.89a1.14 1.14 0 1 1 0-2.29 1.72 1.72 0 1 0-1.72-1.72 1.14 1.14 0 0 1-2.29 0 4 4 0 1 1 4 4zM20.64 71.32a1.14 1.14 0 0 1 0-2.29 1.14 1.14 0 0 1 0 2.29z"/><path class="cls-4" d="M63 20.9l4.23 13.58a.57.57 0 0 0 1 .19l2.1-2.56 5.94 7.12a1.14 1.14 0 0 0 1.61.15l1.44-1.2a1.14 1.14 0 0 0 .15-1.61l-5.94-7.12 2.91-1.6a.57.57 0 0 0 0-1l-12.58-6.62a.57.57 0 0 0-.86.67zM63.55 48.43H44.09a1.14 1.14 0 0 1-1.14-1.14 1.14 1.14 0 0 1 1.14-1.14h19.46a1.14 1.14 0 0 1 1.14 1.14 1.14 1.14 0 0 1-1.14 1.14zM63.55 69H44.09a1.14 1.14 0 0 1-1.14-1.14 1.14 1.14 0 0 1 1.14-1.14h19.46a1.14 1.14 0 0 1 1.14 1.14A1.14 1.14 0 0 1 63.55 69z"/></svg>