<svg id="Layer_2" data-name="Layer 2" xmlns="http://www.w3.org/2000/svg" viewBox="0 0 90 90"><defs><style>.cls-1{fill:#fff}.cls-2{fill:#5b5d6e}.cls-3{fill:#ffa564}.cls-4{fill:#ff7227}</style></defs><title>icon uveren.ru</title><path class="cls-1" d="M44.69 22A21.31 21.31 0 1 0 66 43.31 21.33 21.33 0 0 0 44.69 22zm0 0"/><path class="cls-2" d="M44.69 67.07a23.76 23.76 0 1 1 23.76-23.76 23.78 23.78 0 0 1-23.76 23.76zm0-45.07A21.31 21.31 0 1 0 66 43.31 21.33 21.33 0 0 0 44.69 22zm0 .95"/><path class="cls-2" d="M27.72 44.44H23.2a1.13 1.13 0 0 1 0-2.26h4.53a1.13 1.13 0 1 1 0 2.26zm0 0M66.19 44.44h-4.53a1.13 1.13 0 1 1 0-2.26h4.52a1.13 1.13 0 0 1 0 2.26zm0 0M57.14 44.44H39a1.13 1.13 0 0 1 0-2.26h18.1a1.13 1.13 0 0 1 0 2.26zm0 0"/><path class="cls-2" d="M40.17 49a1.13 1.13 0 0 1-.8-1.93l17-17a1.13 1.13 0 1 1 1.6 1.6l-17 17a1.13 1.13 0 0 1-.8.33zm0 0M43.56 26.34v-4.53a1.13 1.13 0 0 1 2.26 0v4.53a1.13 1.13 0 0 1-2.26 0zm0 0M43.56 64.8v-4.52a1.13 1.13 0 0 1 2.26 0v4.52a1.13 1.13 0 1 1-2.26 0zm0 0"/><path class="cls-2" d="M47 43.31A2.31 2.31 0 1 1 44.69 41 2.31 2.31 0 0 1 47 43.31zm0 0"/><path class="cls-3" d="M46.6 56.22c-3 3-3 5.93-5.93 5.93s-5.93-3-8.89-5.93-5.93-5.93-5.93-8.89 3-3 5.93-5.93-5.93-11.85-8.89-11.85S14 38.44 14 38.44c0 5.93 6.09 17.94 11.85 23.71S43.63 74 49.56 74c0 0 8.89-5.93 8.89-8.89s-8.89-11.85-11.85-8.89zm0 0"/><path class="cls-4" d="M49.86 75h-.3c-6.08 0-18.4-6.13-24.41-12.15S13 44.52 13 38.44v-.3l.17-.25c1-1.56 6.39-9.34 9.72-9.34 2.73 0 8.33 5.11 10 9.11 1 2.37.33 3.73-.39 4.45a17.55 17.55 0 0 1-3.41 2.57c-1.58 1-2.22 1.42-2.22 2.65 0 2.55 2.86 5.41 5.63 8.18s5.63 5.63 8.18 5.63c1.23 0 1.67-.64 2.65-2.22a17.55 17.55 0 0 1 2.57-3.41c.72-.72 2.08-1.38 4.45-.39 4 1.66 9.11 7.26 9.11 10 0 3.33-7.78 8.68-9.34 9.72zM15 38.74c.2 5.67 6 17.18 11.55 22.7s17 11.35 22.7 11.55c4-2.7 8.19-6.42 8.19-7.88s-4.32-6.67-7.87-8.11c-.75-.31-1.75-.57-2.27 0a15.64 15.64 0 0 0-2.3 3c-1 1.63-2 3.17-4.35 3.17-3.38 0-6.54-3.16-9.6-6.22s-6.22-6.22-6.22-9.6C24.85 44.94 26.39 44 28 43a15.64 15.64 0 0 0 3-2.29c.53-.53.27-1.53 0-2.27-1.47-3.54-6.53-7.87-8.14-7.87S17.7 34.75 15 38.74z"/></svg>