<svg id="Layer_2" data-name="Layer 2" xmlns="http://www.w3.org/2000/svg" viewBox="0 0 90 90"><defs><style>.cls-1{fill:#ff7227}.cls-2{fill:#ffa564}.cls-3{fill:#fff}.cls-4{fill:#5b5d6e}</style></defs><title>icon uveren.ru</title><circle class="cls-1" cx="31.78" cy="32.56" r="22.78"/><circle class="cls-2" cx="31.78" cy="32.56" r="20.3"/><circle class="cls-3" cx="31.78" cy="32.56" r="16.08"/><path class="cls-1" d="M24.19 39.56h3v2.57a.41.41 0 0 0 .43.43h2.24a.42.42 0 0 0 .3-.12.41.41 0 0 0 .13-.31v-2.57H37a.41.41 0 0 0 .43-.43v-1.71A.41.41 0 0 0 37 37h-6.73v-1.59h4.55a6 6 0 0 0 4.37-1.63 5.59 5.59 0 0 0 1.69-4.22 5.6 5.6 0 0 0-1.69-4.22 6 6 0 0 0-4.37-1.63h-7.21a.41.41 0 0 0-.43.43v8.42h-3a.41.41 0 0 0-.31.13.42.42 0 0 0-.12.3v2a.41.41 0 0 0 .43.43h3V37h-3a.42.42 0 0 0-.31.12.42.42 0 0 0-.12.31v1.71a.41.41 0 0 0 .43.43zm6.09-13h4.28a3.18 3.18 0 0 1 2.29.83 3.14 3.14 0 0 1 0 4.34 3.17 3.17 0 0 1-2.29.83h-4.29zm0 0"/><path class="cls-4" d="M68.51 36.18a16.81 16.81 0 0 1-9.37-2.89 1.11 1.11 0 0 0-1.24 0 16.64 16.64 0 0 1-17.7.65 1.11 1.11 0 0 0-1.66 1v24.41a1.11 1.11 0 0 0 0 .29 24.29 24.29 0 0 0 8.84 13.18 23.79 23.79 0 0 0 11 4.42 1.09 1.09 0 0 0 .29 0 23.79 23.79 0 0 0 11-4.42 24.29 24.29 0 0 0 8.84-13.18 1.11 1.11 0 0 0 0-.29V34.91a1.11 1.11 0 0 0-1.66-1 16.88 16.88 0 0 1-8.34 2.27z"/><path class="cls-3" d="M58.17 75a21.63 21.63 0 0 1-9.43-4 22 22 0 0 1-7.89-11.51l-.09-.3V37l2.8.77a18.72 18.72 0 0 0 13.9-1.58l1.05-.56 1.05.56a18.72 18.72 0 0 0 13.9 1.58l2.8-.77v22.21l-.09.3A22 22 0 0 1 68.3 71a21.62 21.62 0 0 1-9.43 4l-.35.06z"/><path class="cls-4" d="M58.17 63.5A1.13 1.13 0 0 1 57 62.37V44.3a1.13 1.13 0 0 1 2.26 0v18.07a1.13 1.13 0 0 1-1.09 1.13z"/><path class="cls-4" d="M58.17 65.76a1.13 1.13 0 0 1-1-.58l-4.09-7.36a1.13 1.13 0 1 1 2-1.1l3.12 5.61 3.52-6.17a1.13 1.13 0 0 1 2 1.12l-4.52 7.91a1.13 1.13 0 0 1-1.03.57z"/></svg>