<svg id="Layer_2" data-name="Layer 2" xmlns="http://www.w3.org/2000/svg" viewBox="0 0 90 90"><defs><style>.cls-1{fill:#5b5d6e}.cls-2{fill:#fff}.cls-3{fill:#ffa564}.cls-4{fill:#ff7227}</style></defs><title>icon uveren.ru</title><path class="cls-1" d="M68.12 21.88A32.7 32.7 0 1 0 77.7 45a32.48 32.48 0 0 0-9.58-23.12zM45 75.09A30.09 30.09 0 1 1 75.09 45 30.13 30.13 0 0 1 45 75.09zm0 0"/><path class="cls-2" d="M45 14.24A30.76 30.76 0 1 0 75.76 45 30.76 30.76 0 0 0 45 14.24zm0 55"/><path class="cls-2" d="M68.77 45A23.77 23.77 0 1 1 45 21.23 23.77 23.77 0 0 1 68.77 45zm0 0"/><path class="cls-3" d="M45 21.23A23.77 23.77 0 1 0 68.77 45 23.77 23.77 0 0 0 45 21.23zM26.11 43a18.9 18.9 0 0 1 4.12-9.94l8.61 8.61a7 7 0 0 0-.55 1.33zm22.22-4.16a7 7 0 0 0-1.33-.55V26.11a18.9 18.9 0 0 1 9.94 4.12zM43 38.29a7 7 0 0 0-1.33.55l-8.61-8.61A18.9 18.9 0 0 1 43 26.11zm-1.33 12.87a7 7 0 0 0 1.33.55v12.18a18.9 18.9 0 0 1-9.94-4.12zm5.33.55a7 7 0 0 0 1.33-.55l8.61 8.61A18.9 18.9 0 0 1 47 63.89zm4.16-3.38a7 7 0 0 0 .55-1.33h12.18a18.9 18.9 0 0 1-4.12 9.94zM63.89 43H51.71a7 7 0 0 0-.55-1.33l8.61-8.61A18.9 18.9 0 0 1 63.89 43zm-37.78 4h12.18a7 7 0 0 0 .55 1.33l-8.61 8.61A18.9 18.9 0 0 1 26.11 47z"/><path class="cls-4" d="M45 69.52A24.52 24.52 0 1 1 69.52 45 24.55 24.55 0 0 1 45 69.52zM45 22a23 23 0 1 0 23 23 23 23 0 0 0-23-23zm2 42.66a.75.75 0 0 1-.75-.75v-12.2a.75.75 0 0 1 .54-.72A6.23 6.23 0 0 0 48 50.5a.75.75 0 0 1 .89.13l8.61 8.61a.75.75 0 0 1-.06 1.11 19.64 19.64 0 0 1-10.33 4.29zm.75-12.4V63a18.13 18.13 0 0 0 8.06-3.34l-7.63-7.63zM43 64.64h-.08a19.64 19.64 0 0 1-10.33-4.29.75.75 0 0 1-.06-1.11l8.61-8.61a.75.75 0 0 1 .86-.13 6.23 6.23 0 0 0 1.19.49.75.75 0 0 1 .54.72v12.18a.75.75 0 0 1-.75.75zm-8.81-4.94a18.12 18.12 0 0 0 8.06 3.3V52.24l-.43-.18zm25.58-2a.75.75 0 0 1-.53-.22l-8.61-8.61a.75.75 0 0 1-.13-.87 6.23 6.23 0 0 0 .5-1.21.75.75 0 0 1 .72-.54h12.17a.75.75 0 0 1 .75.83 19.64 19.64 0 0 1-4.29 10.33.75.75 0 0 1-.54.28zm-7.7-9.51l7.63 7.63a18.13 18.13 0 0 0 3.3-8.07H52.24q-.08.25-.17.43zm-21.84 9.5a.75.75 0 0 1-.54-.28 19.64 19.64 0 0 1-4.29-10.33.75.75 0 0 1 .75-.83h12.14a.75.75 0 0 1 .72.54A6.23 6.23 0 0 0 39.5 48a.75.75 0 0 1-.13.89l-8.61 8.61a.75.75 0 0 1-.53.19zM27 47.75a18.12 18.12 0 0 0 3.34 8.06l7.63-7.63q-.09-.21-.18-.43zm36.93-4H51.71a.75.75 0 0 1-.72-.54A6.23 6.23 0 0 0 50.5 42a.75.75 0 0 1 .13-.89l8.61-8.61a.78.78 0 0 1 .57-.22.75.75 0 0 1 .54.28 19.64 19.64 0 0 1 4.29 10.33.75.75 0 0 1-.75.83zm-11.65-1.5H63a18.12 18.12 0 0 0-3.34-8.06l-7.63 7.63q.13.18.21.43zm-14 1.5H26.11a.75.75 0 0 1-.75-.83 19.64 19.64 0 0 1 4.29-10.33.75.75 0 0 1 1.11-.06l8.61 8.61a.75.75 0 0 1 .13.89 6.23 6.23 0 0 0-.5 1.18.75.75 0 0 1-.71.54zM27 42.25h10.8q.08-.22.18-.43l-7.68-7.63a18.13 18.13 0 0 0-3.3 8.06zm14.71-2.66a.75.75 0 0 1-.53-.22l-8.61-8.61a.75.75 0 0 1 .06-1.11 19.64 19.64 0 0 1 10.33-4.29.76.76 0 0 1 .58.19.75.75 0 0 1 .25.56v12.18a.75.75 0 0 1-.54.72 6.23 6.23 0 0 0-1.25.49.75.75 0 0 1-.33.09zm-7.52-9.29l7.63 7.63.43-.18V27a18.13 18.13 0 0 0-8.06 3.3zm14.14 9.29a.75.75 0 0 1-.33-.09 6.23 6.23 0 0 0-1.21-.5.75.75 0 0 1-.54-.72V26.11a.75.75 0 0 1 .25-.56.77.77 0 0 1 .58-.19 19.64 19.64 0 0 1 10.33 4.29.75.75 0 0 1 .06 1.11l-8.61 8.61a.75.75 0 0 1-.53.22zm-.58-1.84l.43.18 7.63-7.63a18.12 18.12 0 0 0-8.06-3.3z"/><path class="cls-1" d="M44 13h2v3a1 1 0 0 1-1 1 1 1 0 0 1-1-1v-3zM46 77h-2v-3a1 1 0 0 1 1-1 1 1 0 0 1 1 1v3zM38.46 13.66l.52 3a1 1 0 1 0 2-.35l-.52-3zM49.86 72.57a1 1 0 0 0-.81 1.16l.52 3 2-.35-.52-3a1 1 0 0 0-1.19-.81zM33.12 15.27l1 2.82a1 1 0 0 0 1.88-.68l-1-2.82zM54.58 71.31a1 1 0 0 0-.6 1.28l1 2.82 1.88-.68-1-2.82a1 1 0 0 0-1.28-.6zM28.13 17.79l1.5 2.6a1 1 0 0 0 1.73-1l-1.5-2.6zM59 69.25a1 1 0 0 0-.37 1.37l1.5 2.6 1.73-1-1.5-2.6a1 1 0 0 0-1.36-.37zM23.66 21.13l1.93 2.3a1 1 0 1 0 1.53-1.29l-1.93-2.3zM63 66.45a1 1 0 0 0-.12 1.41l1.93 2.3 1.53-1.29-1.93-2.3a1 1 0 0 0-1.41-.12zM19.84 25.2l2.3 1.93a1 1 0 1 0 1.29-1.53l-2.3-1.93zM66.45 63a1 1 0 0 0 .12 1.41l2.3 1.93 1.29-1.53-2.3-1.93a1 1 0 0 0-1.41.12zM16.79 29.87l2.6 1.5a1 1 0 1 0 1-1.73l-2.6-1.5zM69.25 59a1 1 0 0 0 .37 1.37l2.6 1.5 1-1.73-2.6-1.5a1 1 0 0 0-1.37.36zM14.59 35l2.82 1a1 1 0 0 0 .68-1.88l-2.82-1zM71.31 54.58a1 1 0 0 0 .6 1.28l2.82 1 .68-1.86-2.82-1a1 1 0 0 0-1.28.58zM13.31 40.43l3 .52a1 1 0 1 0 .35-2l-3-.52zM72.57 49.86a1 1 0 0 0 .82 1.14l3 .52.35-2-3-.52a1 1 0 0 0-1.17.86zM13 46h3a1 1 0 0 0 0-2h-3zM73 45a1 1 0 0 0 1 1h3v-2h-3a1 1 0 0 0-1 1zM13.66 51.54l3-.52a1 1 0 1 0-.35-2l-3 .52zM72.57 40.14a1 1 0 0 0 1.16.81l3-.52-.35-2-3 .52a1 1 0 0 0-.81 1.19zM15.27 56.88l2.82-1a1 1 0 1 0-.68-1.88l-2.82 1zM71.31 35.42a1 1 0 0 0 1.28.6l2.82-1-.68-1.88-2.82 1a1 1 0 0 0-.6 1.28zM17.79 61.87l2.6-1.5a1 1 0 0 0-1-1.73l-2.6 1.5zM69.25 31a1 1 0 0 0 1.37.37l2.6-1.5-1-1.73-2.6 1.5a1 1 0 0 0-.37 1.36zM21.13 66.34l2.3-1.93a1 1 0 0 0-1.29-1.53l-2.3 1.93zM66.45 27a1 1 0 0 0 1.41.12l2.3-1.93-1.29-1.53-2.3 1.93a1 1 0 0 0-.12 1.41zM25.2 70.16l1.93-2.3a1 1 0 1 0-1.53-1.29l-1.93 2.3zM63 23.55a1 1 0 0 0 1.41-.12l1.93-2.3-1.54-1.29-1.93 2.3a1 1 0 0 0 .13 1.41zM29.87 73.21l1.5-2.6a1 1 0 1 0-1.73-1l-1.5 2.6zM59 20.75a1 1 0 0 0 1.37-.37l1.5-2.6-1.73-1-1.5 2.6a1 1 0 0 0 .36 1.37zM35 75.41l1-2.82a1 1 0 1 0-1.88-.68l-1 2.82zM54.58 18.69a1 1 0 0 0 1.28-.6l1-2.82-1.86-.68-1 2.82a1 1 0 0 0 .58 1.28zM40.43 76.69l.52-3a1 1 0 1 0-2-.35l-.52 3zM49.86 17.43a1 1 0 0 0 1.14-.82l.52-3-2-.35-.52 3a1 1 0 0 0 .86 1.17z"/></svg>