<svg id="Layer_2" data-name="Layer 2" xmlns="http://www.w3.org/2000/svg" viewBox="0 0 90 90"><defs><style>.cls-1{fill:#fff}.cls-2{fill:#5b5d6e}.cls-3{fill:#ffa564}.cls-4{fill:#ff7227}.cls-5{fill:#f1f4fb}</style></defs><title>icon uveren.ru</title><path class="cls-1" d="M17.89 73.5l18.57-39h17L72 73.5m0 0"/><path class="cls-2" d="M72 74.91a1.41 1.41 0 0 1-1.28-.81L52.54 35.91H37.35l-18.19 38.2a1.41 1.41 0 0 1-2.55-1.21l18.95-39.8h18.77l18.95 39.8a1.41 1.41 0 0 1-1.27 2z"/><path class="cls-2" d="M45 36a133 133 0 0 1-21-1.46c-8.59-1.45-9.69-3.34-9.69-4.82 0-1 0-3.85 14.11-5.48 1.62-4.84 8.62-9.86 16.56-9.86s14.94 5 16.56 9.86c14.11 1.65 14.11 4.52 14.11 5.48 0 1.46-1.1 3.32-9.69 4.78A130.91 130.91 0 0 1 45 36zm-28-6.29c1.35 1.33 10.59 3.67 28 3.67 16.43 0 26.41-2.27 28-3.68-.72-.64-3.88-2-12.56-3l-1-.1-.18-1C58.6 22.21 52.59 17 45 17s-13.6 5.23-14.25 8.69l-.18 1-1 .1c-8.73.88-11.86 2.29-12.57 2.92z"/><path class="cls-2" d="M39.17 24.53a1.89 1.89 0 1 1-1.89-1.89 1.89 1.89 0 0 1 1.89 1.89zm0 0M46.84 24.53a1.89 1.89 0 1 1-1.89-1.89 1.89 1.89 0 0 1 1.89 1.89zm0 0M54.5 24.53a1.89 1.89 0 1 1-1.89-1.89 1.89 1.89 0 0 1 1.89 1.89zm0 0"/><path class="cls-3" d="M51 60.7l4.72-1.34a1.35 1.35 0 0 1 1.66.91l1.09 3.66a1.35 1.35 0 0 1-1 1.69l-25.71 6.74a1.7 1.7 0 0 1-1.48-.31l-.44-.35a1.7 1.7 0 0 1-.64-1.2l-.2-2.31a1.7 1.7 0 0 1 .45-1.3l.81-.88a1.72 1.72 0 0 0 .36-.59L32 61.58a1.71 1.71 0 0 1 1.18-1.08l11-2.86a1.68 1.68 0 0 1 1.34.21l4.22 2.65a1.73 1.73 0 0 0 1.26.2z"/><path class="cls-4" d="M31.33 73.42a2.71 2.71 0 0 1-1.67-.58l-.44-.35a2.71 2.71 0 0 1-1-1.9L28 68.28a2.71 2.71 0 0 1 .71-2.06l.81-.88a.71.71 0 0 0 .15-.25L31 61.24a2.7 2.7 0 0 1 1.87-1.71l11-2.86A2.7 2.7 0 0 1 46 57l4.21 2.65a.73.73 0 0 0 .54.09l4.7-1.33A2.36 2.36 0 0 1 58.34 60l1.09 3.66a2.35 2.35 0 0 1-1.66 2.94L32 73.33a2.67 2.67 0 0 1-.67.09zm13.21-14.84h-.18l-11 2.86a.7.7 0 0 0-.49.45l-1.37 3.85a2.7 2.7 0 0 1-.56.94l-.81.88a.7.7 0 0 0-.18.54l.2 2.32a.71.71 0 0 0 .27.49l.44.35a.71.71 0 0 0 .61.13l25.76-6.74a.35.35 0 0 0 .25-.44l-1.09-3.66a.35.35 0 0 0-.43-.24l-4.73 1.34a2.74 2.74 0 0 1-2.11-.32l-4.23-2.66a.68.68 0 0 0-.35-.09z"/><circle class="cls-2" cx="35.28" cy="72.16" r="3.45" transform="rotate(-14.65 35.28 72.187)"/><circle class="cls-5" cx="35.28" cy="72.16" r="1.51" transform="rotate(-14.65 35.28 72.187)"/><circle class="cls-2" cx="54.1" cy="67.45" r="3.45" transform="rotate(-14.1 55.38 67.845)"/><circle class="cls-5" cx="54.1" cy="67.45" r="1.51" transform="rotate(-14.65 54.118 67.452)"/></svg>