<svg id="Layer_2" data-name="Layer 2" xmlns="http://www.w3.org/2000/svg" viewBox="0 0 90 90"><defs><style>.cls-1{fill:#5b5d6e}.cls-2{fill:#ffa564}.cls-3{fill:#ff7227}</style></defs><title>icon uveren.ru</title><path class="cls-1" d="M64.6 62.54c-7.4 0-13.41-5.09-13.41-11.35a1 1 0 0 1 1-1H77a1 1 0 0 1 1 1c0 6.26-6 11.35-13.41 11.35zM53.32 52.22c.63 4.64 5.45 8.25 11.28 8.25s10.65-3.62 11.28-8.25zm0 0M13 52.22a1 1 0 0 1-.93-1.48L23.62 27a1 1 0 0 1 1.86.9L13.94 51.64a1 1 0 0 1-.93.58zm0 0"/><path class="cls-1" d="M37.78 52.22a1 1 0 0 1-.93-.58L25.32 27.91a1 1 0 0 1 1.86-.9l11.53 23.73a1 1 0 0 1-.93 1.48zm0 0M52.22 52.22a1 1 0 0 1-.45-.1 1 1 0 0 1-.48-1.38L62.82 27a1 1 0 0 1 1.86.9L53.15 51.64a1 1 0 0 1-.93.58zm0 0"/><path class="cls-1" d="M77 52.22a1 1 0 0 1-.93-.58L64.53 27.91a1 1 0 0 1 1.86-.9l11.52 23.73a1 1 0 0 1-.91 1.48zm0 0M23.33 25.88a1 1 0 0 1-.47-.11 9.3 9.3 0 0 1-2.31-1.69L18.48 22a1 1 0 0 1 1.46-1.46L22 22.62a7.22 7.22 0 0 0 1.79 1.31 1 1 0 0 1-.47 1.95zm0 0M27.46 26.79a1 1 0 0 1 0-2.06 7.16 7.16 0 0 0 2.75-.73l11.25-5.33a1 1 0 1 1 .88 1.86L31.09 25.9a9.21 9.21 0 0 1-3.59.89zm0 0M66.67 25.88a1 1 0 0 1-.47-1.95 7.21 7.21 0 0 0 1.8-1.31l2.08-2.08A1 1 0 0 1 71.52 22l-2.08 2.08a9.29 9.29 0 0 1-2.3 1.69 1 1 0 0 1-.47.11zm0 0M62.54 26.79a9.22 9.22 0 0 1-3.59-.89l-11.3-5.33a1 1 0 1 1 .88-1.86L59.79 24a7.18 7.18 0 0 0 2.79.69 1 1 0 0 1 0 2.06zm0 0M42.94 67.7V20.65h4.12V67.7"/><path class="cls-1" d="M45 66.67a8.26 8.26 0 0 0-8.25 8.25 1 1 0 0 0 2.06 0h12.38a1 1 0 0 0 2.06 0A8.26 8.26 0 0 0 45 66.67zm0 0"/><path class="cls-1" d="M57.38 76H32.62a1 1 0 0 1 0-2.06h24.76a1 1 0 0 1 0 2.06zm0 0M28.49 25.4a3.1 3.1 0 1 1-3.1-3.1 3.1 3.1 0 0 1 3.1 3.1zm0 0M67.7 25.4a3.1 3.1 0 1 1-3.1-3.1 3.1 3.1 0 0 1 3.1 3.1zm0 0M49.13 18.17A4.13 4.13 0 1 1 45 14a4.13 4.13 0 0 1 4.13 4.13zm0 0"/><path class="cls-2" d="M64.6 63.38c-7.95 0-14.41-5.54-14.41-12.35a2 2 0 0 1 2-2H77a2 2 0 0 1 2 2c0 6.81-6.45 12.35-14.4 12.35z"/><path class="cls-3" d="M64.6 64.38c-8.5 0-15.41-6-15.41-13.35a3 3 0 0 1 3-3H77a3 3 0 0 1 3 3c0 7.36-6.9 13.35-15.4 13.35zM52.22 50a1 1 0 0 0-1 1c0 6.26 6 11.35 13.41 11.35S78 57.29 78 51a1 1 0 0 0-1-1z"/><path class="cls-2" d="M25.4 63.38C17.45 63.38 11 57.84 11 51a2 2 0 0 1 2-2h24.78a2 2 0 0 1 2 2c.03 6.84-6.44 12.38-14.38 12.38z"/><path class="cls-3" d="M25.4 64.38C16.9 64.38 10 58.39 10 51a3 3 0 0 1 3-3h24.78a3 3 0 0 1 3 3c.03 7.39-6.88 13.38-15.38 13.38zM13 50a1 1 0 0 0-1 1c0 6.26 6 11.35 13.41 11.35s13.4-5.06 13.4-11.35a1 1 0 0 0-1-1z"/></svg>