<svg id="Layer_2" data-name="Layer 2" xmlns="http://www.w3.org/2000/svg" viewBox="0 0 90 90"><defs><style>.cls-1,.cls-5{fill:#fff}.cls-1{stroke:#5b5d6e;stroke-miterlimit:10;stroke-width:2px}.cls-2{fill:#5b5d6e}.cls-3{fill:#ffa564}.cls-4{fill:#ff7227}</style></defs><title>icon uveren.ru</title><path class="cls-1" d="M65.68 38.25V64a1.19 1.19 0 0 1-1 1.32H19.74a1.19 1.19 0 0 1-1-1.32V38.25a1.19 1.19 0 0 1 1-1.32h44.94a1.19 1.19 0 0 1 1 1.32z"/><path class="cls-1" d="M57.87 47v25.68a1.19 1.19 0 0 1-1 1.32h-44.8a1.19 1.19 0 0 1-1-1.32V47a1.19 1.19 0 0 1 1-1.32h44.8a1.19 1.19 0 0 1 1 1.32z"/><path class="cls-2" d="M44.89 59.08h-21a1.23 1.23 0 0 1 0-2.47h21a1.23 1.23 0 0 1 0 2.47zM44.89 65.74h-21a1.23 1.23 0 0 1 0-2.47h21a1.23 1.23 0 0 1 0 2.47z"/><path class="cls-3" d="M60 16.36l4.3-1.09a1.13 1.13 0 0 1 1.06.28l3.18 3.1a1.12 1.12 0 0 0 .48.28l4.27 1.2a1.13 1.13 0 0 1 .78.78l1.2 4.27a1.13 1.13 0 0 0 .28.48l3.1 3.17a1.13 1.13 0 0 1 .35 1.06l-1.1 4.29a1.13 1.13 0 0 0 0 .56L79 39a1.13 1.13 0 0 1-.29 1.06l-3.1 3.17a1.13 1.13 0 0 0-.28.48L74.1 48a1.13 1.13 0 0 1-.78.78L69 50a1.13 1.13 0 0 0-.48.28l-3.18 3.1a1.13 1.13 0 0 1-1.06.28L60 52.56a1.13 1.13 0 0 0-.55 0l-4.3 1.09a1.13 1.13 0 0 1-1.06-.28l-3.18-3.1a1.12 1.12 0 0 0-.48-.28l-4.27-1.2a1.13 1.13 0 0 1-.78-.78l-1.2-4.27a1.12 1.12 0 0 0-.28-.48l-3.1-3.17a1.13 1.13 0 0 1-.28-1.09l1.1-4.29a1.13 1.13 0 0 0 0-.56l-1.1-4.29a1.13 1.13 0 0 1 .29-1.06l3.1-3.17a1.13 1.13 0 0 0 .28-.48l1.2-4.27a1.13 1.13 0 0 1 .78-.78l4.27-1.2a1.12 1.12 0 0 0 .48-.28l3.18-3.1a1.13 1.13 0 0 1 1.06-.28l4.3 1.09a1.13 1.13 0 0 0 .54.03z"/><path class="cls-4" d="M54.89 54.69a2.14 2.14 0 0 1-1.49-.6L50.22 51l-4.32-1.24a2.14 2.14 0 0 1-1.47-1.47L43.22 44l-3.13-3.2a2.14 2.14 0 0 1-.54-2l1.1-4.29-1.1-4.36a2.14 2.14 0 0 1 .54-2l3.1-3.15 1.23-4.32a2.14 2.14 0 0 1 1.47-1.47L50.17 18l3.23-3.13a2.14 2.14 0 0 1 2-.54l4.3 1.09.31 1-.25-1 4.3-1.09a2.14 2.14 0 0 1 2 .54l3.18 3.1 4.33 1.23a2.14 2.14 0 0 1 1.47 1.47l1.2 4.27 3.13 3.23a2.14 2.14 0 0 1 .54 2l-1.1 4.3 1.1 4.36a2.13 2.13 0 0 1-.54 2L76.29 44l-1.23 4.32a2.14 2.14 0 0 1-1.47 1.47L69.32 51l-3.23 3.13a2.13 2.13 0 0 1-2 .54l-4.3-1.09-4.37 1.09a2.1 2.1 0 0 1-.53.02zm0-38.46a.12.12 0 0 0-.09 0l-3.18 3.1a2.13 2.13 0 0 1-.91.52l-4.27 1.2a.12.12 0 0 0-.09.09l-1.2 4.27a2.12 2.12 0 0 1-.53.91l-3.1 3.17a.12.12 0 0 0 0 .12l1.1 4.3a2.12 2.12 0 0 1 0 1.05l-1.1 4.29a.12.12 0 0 0 0 .12l3.1 3.17a2.12 2.12 0 0 1 .53.91l1.2 4.27a.12.12 0 0 0 .09.09L50.71 49a2.14 2.14 0 0 1 .91.52l3.18 3.1a.12.12 0 0 0 .12 0l4.3-1.09a2.14 2.14 0 0 1 1 0l4.3 1.09a.12.12 0 0 0 .12 0l3.18-3.1a2.13 2.13 0 0 1 .91-.52L73 47.8a.13.13 0 0 0 .09-.09l1.2-4.27a2.13 2.13 0 0 1 .53-.91L78 39.4a.12.12 0 0 0 0-.12L76.9 35a2.15 2.15 0 0 1 0-1l1.1-4.3a.12.12 0 0 0 0-.12l-3.1-3.17a2.13 2.13 0 0 1-.53-.91l-1.2-4.27a.13.13 0 0 0-.09-.09l-4.27-1.2a2.13 2.13 0 0 1-.91-.52l-3.18-3.1a.13.13 0 0 0-.12 0l-4.31 1.1a2.15 2.15 0 0 1-1 0l-4.31-1.1z"/><path class="cls-5" d="M58.16 29.28a3.78 3.78 0 1 0-3.78 3.78 3.79 3.79 0 0 0 3.78-3.78zm-5.1 0a1.32 1.32 0 1 1 1.32 1.32 1.32 1.32 0 0 1-1.31-1.32zM64.25 37A3.78 3.78 0 1 0 68 40.8a3.79 3.79 0 0 0-3.75-3.8zm0 5.1a1.32 1.32 0 1 1 1.32-1.32 1.32 1.32 0 0 1-1.32 1.33zM66.19 28.16a1.23 1.23 0 0 0-1.74 0l-12 12a1.23 1.23 0 0 0 1.74 1.74l12-12a1.23 1.23 0 0 0 0-1.74z"/></svg>