<svg id="Layer_2" data-name="Layer 2" xmlns="http://www.w3.org/2000/svg" viewBox="0 0 90 90"><defs><style>.cls-1{fill:#fff}.cls-2{fill:#5b5d6e}.cls-3{fill:#ffa564}.cls-4{fill:#ff7227}</style></defs><title>icon uveren.ru</title><path class="cls-1" d="M41.89 33.54H79a4 4 0 0 1 4 4v23.8a4 4 0 0 1-4 4H57.78v4.37a.93.93 0 0 1-1.59.66l-5-5h-9.3a4 4 0 0 1-4-4V37.51a4 4 0 0 1 4-3.97z"/><path class="cls-2" d="M56.84 71.76a2.07 2.07 0 0 1-1.47-.61l-4.69-4.69h-8.79a5.12 5.12 0 0 1-5.12-5.12V37.51a5.12 5.12 0 0 1 5.12-5.12H79a5.12 5.12 0 0 1 5.12 5.12v23.83A5.12 5.12 0 0 1 79 66.46H59v3.22a2.08 2.08 0 0 1-2.08 2.08zm-15-37.07a2.83 2.83 0 0 0-2.82 2.82v23.83a2.83 2.83 0 0 0 2.82 2.82h9.74l5 5v-5H79a2.83 2.83 0 0 0 2.82-2.82V37.51A2.83 2.83 0 0 0 79 34.69z"/><path class="cls-3" d="M51.16 38.83a22.5 22.5 0 1 0-27 22.05l6.78 6.78a1 1 0 0 0 1.69-.7V61a22.5 22.5 0 0 0 18.53-22.17z"/><path class="cls-4" d="M31.63 69.1a2.14 2.14 0 0 1-1.51-.63l-6.54-6.54a23.7 23.7 0 1 1 10.19 0V67a2.14 2.14 0 0 1-2.14 2.14zm-3-51.63a21.36 21.36 0 0 0-4.27 42.29l.34.07 6.76 6.76V60l.95-.17a21.35 21.35 0 0 0-3.77-42.36z"/><circle class="cls-1" cx="28.65" cy="38.84" r="17.21"/><path class="cls-2" d="M28.65 50.76a1.33 1.33 0 0 1-1.32-1.32 1.33 1.33 0 0 1 1.32-1.32A1.33 1.33 0 0 1 30 49.43a1.33 1.33 0 0 1-1.35 1.33zM60.42 57.37a1.32 1.32 0 0 1-.94-.39l-6.62-6.62a1.32 1.32 0 1 1 1.87-1.87l5.68 5.68 12.3-12.3a1.32 1.32 0 0 1 1.87 1.87L61.36 57a1.32 1.32 0 0 1-.94.37zM28.65 45.46a1.32 1.32 0 0 1-1.32-1.32v-.4a4 4 0 0 1 2.85-3.8 5.33 5.33 0 0 0 3.77-5.07 5.4 5.4 0 0 0-5.3-5.3 5.3 5.3 0 0 0-5.29 5.3 1.32 1.32 0 1 1-2.65 0 8 8 0 0 1 7.94-7.94 8 8 0 0 1 7.94 7.94 8 8 0 0 1-5.66 7.61 1.32 1.32 0 0 0-1 1.26v.4a1.32 1.32 0 0 1-1.28 1.32z"/></svg>