<svg id="Layer_2" data-name="Layer 2" xmlns="http://www.w3.org/2000/svg" viewBox="0 0 90 90"><defs><style>.cls-1{fill:#fff}.cls-2{fill:#5b5d6e}.cls-3{fill:#ffa564}.cls-4{fill:#ff7227}</style></defs><title>icon uveren.ru</title><path class="cls-1" d="M68.56 62.76l-4.46-7.44a11.32 11.32 0 0 1-1.61-4.59l-2.73-18.6a10.44 10.44 0 0 0-6.26-7.19l-.74-.31c-.25-.12-.56-.19-.87-.31a1.45 1.45 0 0 1-.74-.62l-3.22-6.14a2.85 2.85 0 0 0-2.67-1.61h-.62a3 3 0 0 0-2.73 1.67l-3.24 6.08a1.45 1.45 0 0 1-.74.62c-.37.12-.74.25-1.05.37l-.68.25a10.44 10.44 0 0 0-6.26 7.19l-2.74 18.6a13.53 13.53 0 0 1-1.61 4.59l-4.46 7.44a1.83 1.83 0 0 0 1.61 2.79H67a1.85 1.85 0 0 0 1.55-2.79zm0 0"/><path class="cls-2" d="M40 66.79v.31a4.65 4.65 0 1 0 9.3 0v-.31zm0 0"/><path class="cls-3" d="M67 66.79H22.74A3 3 0 0 1 20 65.24a2.94 2.94 0 0 1 .06-3.1l4.46-7.44A11.41 11.41 0 0 0 26 50.54l2.73-18.73a11.73 11.73 0 0 1 7-8.06l.74-.25c.31-.12.68-.25 1.05-.37a.06.06 0 0 0 .06-.06l3.22-6a4.26 4.26 0 0 1 3.84-2.36h.62A4.13 4.13 0 0 1 49 17l3.16 6.08a.22.22 0 0 0 .12.06c.12.06.19.06.31.12a4.25 4.25 0 0 1 .62.25l.68.31a11.75 11.75 0 0 1 7 8.06V32l2.73 18.6a11.83 11.83 0 0 0 1.43 4.15l4.46 7.44a3.08 3.08 0 0 1 .06 3.1 3 3 0 0 1-2.57 1.5zM27 54l-4.76 9.38a.55.55 0 0 0 0 .62.62.62 0 0 0 .56.31h44.27a.63.63 0 0 0 .5-.31.71.71 0 0 0 0-.62L64 55c-1-1.61-34-2-37-1zm4.17-21.62"/><path class="cls-4" d="M67 66.79H22.74A3 3 0 0 1 20 65.24a2.94 2.94 0 0 1 .06-3.1l4.46-7.44A11.41 11.41 0 0 0 26 50.54l2.73-18.73a11.73 11.73 0 0 1 7-8.06l.74-.25c.31-.12.68-.25 1.05-.37a.06.06 0 0 0 .06-.06l3.22-6a4.26 4.26 0 0 1 3.84-2.36h.62A4.13 4.13 0 0 1 49 17l3.16 6.08a.22.22 0 0 0 .12.06c.12.06.19.06.31.12a4.25 4.25 0 0 1 .62.25l.68.31a11.75 11.75 0 0 1 7 8.06V32l2.73 18.6a11.83 11.83 0 0 0 1.43 4.15l4.46 7.44a3.08 3.08 0 0 1 .06 3.1 3 3 0 0 1-2.57 1.5zM31.17 32.38l-2.73 18.54a26.65 26.65 0 0 1-1.74 5l-4.46 7.44a.55.55 0 0 0 0 .62.62.62 0 0 0 .56.31h44.27a.63.63 0 0 0 .5-.31.71.71 0 0 0 0-.62l-4.47-7.42a26.58 26.58 0 0 1-1.8-5.08l-2.73-18.48a9.18 9.18 0 0 0-5.52-6.26l-.87-.37c-.06-.06-.19-.06-.31-.12l-.5-.19A3 3 0 0 1 50 24.32v-.07l-3.29-6.2a1.57 1.57 0 0 0-1.55-.87h-.66a1.79 1.79 0 0 0-1.61 1l-3.29 6.14a2.46 2.46 0 0 1-1.36 1.12h-.06c-.37.12-.68.25-1 .37l-.74.25a9.37 9.37 0 0 0-5.27 6.32zm0 0"/><path class="cls-4" d="M27 53h36v2H27z"/></svg>