<svg id="Layer_2" data-name="Layer 2" xmlns="http://www.w3.org/2000/svg" viewBox="0 0 90 90"><defs><style>.cls-1{fill:#5b5d6e}.cls-2{fill:#ff7227}.cls-3{fill:#ffa564}.cls-4{fill:#fff}</style></defs><title>icon uveren.ru</title><path class="cls-1" d="M36.1 62.2a26.1 26.1 0 1 1 26.1-26.1 26.13 26.13 0 0 1-26.1 26.1zm0-49.83A23.73 23.73 0 1 0 59.83 36.1 23.76 23.76 0 0 0 36.1 12.37z"/><path class="cls-1" d="M36.1 19.49a1.19 1.19 0 0 1-1.19-1.19v-2.37a1.19 1.19 0 1 1 2.37 0v2.37a1.19 1.19 0 0 1-1.18 1.19zM36.1 57.46a1.19 1.19 0 0 1-1.19-1.19V53.9a1.19 1.19 0 0 1 2.37 0v2.37a1.19 1.19 0 0 1-1.18 1.19zM56.27 37.29H53.9a1.19 1.19 0 0 1 0-2.37h2.37a1.19 1.19 0 1 1 0 2.37zM18.31 37.29h-2.38a1.19 1.19 0 1 1 0-2.37h2.37a1.19 1.19 0 0 1 0 2.37zM45.59 20.85a1.19 1.19 0 0 1-1-1.78l.59-1a1.19 1.19 0 1 1 2.06 1.19l-.59 1a1.19 1.19 0 0 1-1.06.59zM26 54.76A1.19 1.19 0 0 1 25 53l.59-1a1.19 1.19 0 0 1 2.06 1.19l-.59 1a1.19 1.19 0 0 1-1.06.57zM26.61 20.85a1.19 1.19 0 0 1-1-.59l-.59-1A1.19 1.19 0 0 1 27 18l.59 1a1.19 1.19 0 0 1-1 1.78zM19.66 27.8a1.18 1.18 0 0 1-.59-.16L18 27a1.19 1.19 0 1 1 1.23-2l1 .59a1.19 1.19 0 0 1-.59 2.21zM52.54 27.8a1.19 1.19 0 0 1-.59-2.21L53 25a1.19 1.19 0 0 1 1.16 2l-1 .59a1.18 1.18 0 0 1-.62.21zM18.64 47.37a1.19 1.19 0 0 1-.64-2.21l1-.59a1.19 1.19 0 1 1 1.19 2.06l-1 .59a1.18 1.18 0 0 1-.55.15zM36.1 37.29a1.18 1.18 0 0 1-.84-.35L23.4 25.08a1.19 1.19 0 0 1 1.68-1.68L36.2 34.52l9.85-7.66a1.19 1.19 0 0 1 1.46 1.87L36.83 37a1.18 1.18 0 0 1-.73.29z"/><circle class="cls-1" cx="36.1" cy="36.1" r="2.37"/><circle class="cls-2" cx="60.47" cy="60.13" r="21.47"/><circle class="cls-3" cx="60.47" cy="60.13" r="19.13"/><circle class="cls-4" cx="60.47" cy="60.13" r="15.15"/><path class="cls-2" d="M53.31 66.73h2.83v2.42a.39.39 0 0 0 .4.4h2.11a.4.4 0 0 0 .28-.11.38.38 0 0 0 .12-.29v-2.42h6.37a.39.39 0 0 0 .4-.4v-1.62a.39.39 0 0 0-.4-.4H59v-1.49h4.29a5.68 5.68 0 0 0 4.12-1.54 5.74 5.74 0 0 0 0-7.95 5.69 5.69 0 0 0-4.12-1.54h-6.8a.39.39 0 0 0-.4.4v7.93h-2.78a.39.39 0 0 0-.29.12.4.4 0 0 0-.11.28v1.88a.39.39 0 0 0 .4.4h2.83v1.49h-2.83a.4.4 0 0 0-.29.11.39.39 0 0 0-.11.29v1.61a.39.39 0 0 0 .4.4zM59 54.48h4a3 3 0 0 1 2.16.78 3 3 0 0 1 0 4.09 3 3 0 0 1-2.16.78h-4zm0 0"/></svg>