<?xml version="1.0" encoding="utf-8"?>
<!-- Generator: Adobe Illustrator 21.1.0, SVG Export Plug-In . SVG Version: 6.00 Build 0)  -->
<svg version="1.1" id="Слой_1" xmlns="http://www.w3.org/2000/svg" xmlns:xlink="http://www.w3.org/1999/xlink" x="0px" y="0px"
	 viewBox="0 0 321 101.1" style="enable-background:new 0 0 321 101.1;" xml:space="preserve">
<style type="text/css">
	.st0{fill:#FFFFFF;}
</style>
<g>
	<path class="st0" d="M142.7,88c-1.4,0-2.2,0.5-2.7,0.9c0-0.4-0.4-0.9-1-0.9h0h-1.1v1.1v0.4v9.8v0.4v1.1h1.1h0
		c0.6,0,1.1-0.5,1.1-1.1v-3.6c0,0,0.9,1,2.5,1c2.5,0,4.4-2,4.4-4.5C146.9,90,145.1,88,142.7,88z M142.4,95.1c-1.4,0-2.4-1-2.4-2.5
		c0-1.5,1-2.5,2.4-2.5c1.5,0,2.5,1.2,2.5,2.5C144.8,93.9,143.8,95.1,142.4,95.1z"/>
	<path class="st0" d="M220.9,88.2h-0.5c-0.3,0-0.7,0.1-1,0.5l-3.9,4.6L215,94v-4.9c0-0.6-0.5-1.1-1.1-1.1v0h0h-1v1.1v0.5v6.3
		c0,0.5,0.4,1,1.1,1h0.5c0.3,0,0.7-0.1,1-0.5l3.9-4.7l0.4-0.7V96c0,0.6,0.4,1.1,1,1.1h0h1.1V96v-0.5v-6.3
		C222,88.7,221.5,88.2,220.9,88.2z"/>
	<path class="st0" d="M126.3,94.5c-0.3,0-0.5,0.1-0.7,0.2c-0.2,0.1-0.6,0.3-1.2,0.3c-1.4,0-2.5-1.1-2.5-2.5c0-1.4,1.1-2.5,2.4-2.5
		c0.6,0,1,0.1,1.3,0.2c0.2,0.1,0.4,0.2,0.7,0.2c0.6,0,1-0.5,1-1c0-0.5-0.3-0.8-0.7-1c-0.4-0.2-1.2-0.5-2.3-0.5c-2.5,0-4.6,2-4.6,4.5
		c0,2.5,2.1,4.6,4.7,4.6c1.1,0,1.9-0.3,2.3-0.5c0.3-0.2,0.6-0.5,0.6-1C127.3,95,126.9,94.5,126.3,94.5z"/>
	<path class="st0" d="M228.5,88c-2.4,0-4.5,2-4.5,4.5s2,4.6,4.6,4.6c1.7,0,2.5-0.5,2.8-0.6c0.3-0.2,0.6-0.5,0.6-1c0-0.6-0.5-1-1-1
		c-0.3,0-0.6,0.1-0.8,0.3c-0.3,0.2-0.8,0.4-1.6,0.4c-1,0-2.1-0.8-2.3-1.7c0,0,5.2,0,5.2,0c0.8,0,1.3-0.5,1.3-1.3
		C232.8,90.1,231,88,228.5,88z M226.3,91.7c0.1-0.8,1.1-1.7,2.2-1.7c1.2,0,2.1,0.9,2.2,1.7H226.3z"/>
	<path class="st0" d="M136.4,88.2h-1h-0.5h-5.8c-0.6,0-1,0.4-1,0.9h0v0.1v1h1l0.1,0h2V96c0,0.6,0.5,1.1,1.1,1.1v0h0h1.1V96v-0.4
		v-5.4h2c0.6,0,1-0.3,1-0.9h0v0c0,0,0-0.1,0-0.1c0,0,0-0.1,0-0.1V88.2z"/>
	<path class="st0" d="M155.4,88.9c-0.4-0.4-1.4-0.9-2.5-0.9c-2.4,0-4.4,2-4.4,4.5c0,2.5,2,4.6,4.4,4.6c1.1,0,2.1-0.5,2.5-0.9
		c0,0.4,0.5,0.9,1,0.9h1.2v-1.2v-0.7v-5.6v-0.4V88h-1.2C155.8,88,155.4,88.5,155.4,88.9z M153.1,95.1c-1.4,0-2.5-1.2-2.5-2.5
		c0-1.3,1.1-2.5,2.5-2.5c1.4,0,2.4,1.1,2.4,2.5C155.5,94,154.5,95.1,153.1,95.1z"/>
	<path class="st0" d="M196.6,88.9c-0.4-0.4-1.4-0.9-2.5-0.9c-2.4,0-4.4,2-4.4,4.5c0,2.5,2,4.6,4.4,4.6c1.1,0,2.1-0.5,2.5-0.9
		c0,0.4,0.5,0.9,1,0.9h1.2v-1.2v-0.7v-5.6v-0.4V88h-1.2C197.1,88,196.6,88.5,196.6,88.9z M194.3,95.1c-1.4,0-2.5-1.2-2.5-2.5
		c0-1.3,1.1-2.5,2.5-2.5c1.4,0,2.4,1.1,2.4,2.5C196.7,94,195.7,95.1,194.3,95.1z"/>
	<path class="st0" d="M167.6,95.4l-2.5-2.8l2.4-2.7l0,0l0.7-0.8l-0.8-0.7l0,0c-0.2-0.2-0.4-0.3-0.7-0.3c-0.3,0-0.6,0.1-0.8,0.3
		l-2.2,2.5l-2.2-2.5c-0.2-0.2-0.5-0.3-0.8-0.3c-0.3,0-0.5,0.1-0.7,0.3l-0.7,0.6l0.9,1.1l0,0l2.1,2.5l-2.5,2.8l0,0l-0.7,0.8l0.7,0.6
		c0.2,0.2,0.4,0.3,0.7,0.3c0.3,0,0.6-0.1,0.8-0.3l2.3-2.6l2.3,2.6c0.2,0.2,0.5,0.3,0.8,0.3c0.3,0,0.5-0.1,0.7-0.3l0,0l0,0l0.8-0.7
		L167.6,95.4C167.7,95.4,167.6,95.4,167.6,95.4z"/>
	<path class="st0" d="M209.3,88L209.3,88c-0.6,0-1,0.5-1,1.1v2.3h-4.7v-1.8v-0.5V88h-1.1h0v0c-0.6,0-1.1,0.5-1.1,1.1v6.4V96v1.1h1.1
		h0c0.6,0,1.1-0.5,1.1-1.1v-2.6h4.7v2.1V96v1.1h1.1v0c0.6,0,1.1-0.5,1.1-1.1v-6.4v-0.5V88H209.3L209.3,88z"/>
	<path class="st0" d="M173.6,88c-2.6,0-4.6,2-4.6,4.5c0,2.5,2,4.6,4.6,4.6c2.6,0,4.6-2,4.6-4.6S176.1,88,173.6,88z M173.6,95.1
		c-1.4,0-2.5-1.2-2.5-2.5c0-1.3,1.1-2.5,2.5-2.5c1.4,0,2.4,1.1,2.4,2.5C176,93.9,175,95.1,173.6,95.1z"/>
	<path class="st0" d="M187.2,92.2c0,0,0.7-0.6,0.7-1.6c0-1.3-1-2.4-3.1-2.4h-3.4c-0.6,0-1.2,0.5-1.2,1.1v6.1v0.4v1.1h1.2h0.8h2.5
		c2.2,0,3.5-1.3,3.5-2.7C188.2,92.9,187.2,92.2,187.2,92.2z M182.3,90.2h2.4c0.6,0,1,0.3,1,0.7c0,0.4-0.4,0.7-1,0.7h-2.4V90.2z
		 M184.8,94.9h-2.4v-1.6h2.4c0.8,0,1.3,0.3,1.3,0.7C186.1,94.5,185.6,94.9,184.8,94.9z"/>
	<path class="st0" d="M192.4,77.6c0-0.6-0.5-1-1-1c-0.3,0-0.6,0.1-0.8,0.3c-0.3,0.2-0.8,0.4-1.6,0.4c-1,0-2.1-0.8-2.3-1.7
		c0,0,5.2,0,5.2,0c0.8,0,1.3-0.5,1.3-1.3c0-2-1.9-4.1-4.3-4.1c-2.4,0-4.5,2-4.5,4.5c0,2.5,2,4.6,4.6,4.6c1.7,0,2.5-0.5,2.8-0.6
		C192.1,78.3,192.4,78,192.4,77.6z M188.9,72.1c1.2,0,2.1,0.9,2.2,1.7h-4.4C186.8,73,187.8,72.1,188.9,72.1z"/>
	<path class="st0" d="M173.6,74.7c0,2.5,2,4.6,4.6,4.6c2.6,0,4.6-2,4.6-4.6c0-2.5-2.1-4.5-4.6-4.5C175.6,70.1,173.6,72.1,173.6,74.7
		z M180.6,74.7c0,1.3-1,2.5-2.4,2.5c-1.4,0-2.5-1.2-2.5-2.5c0-1.3,1.1-2.5,2.5-2.5C179.6,72.2,180.6,73.3,180.6,74.7z"/>
	<path class="st0" d="M162.4,77.6v0.5v1.1h1.1h0c0.6,0,1.1-0.5,1.1-1.1v-2.6h4.7v2.1v0.5v1.1h1.1v0c0.6,0,1.1-0.5,1.1-1.1v-6.4v-0.5
		v-1.1h-1.1h-0.1v0c-0.6,0-1,0.5-1,1.1v2.3h-4.7v-1.8v-0.5v-1.1h-1.1h0v0c-0.6,0-1.1,0.5-1.1,1.1V77.6z"/>
	<path class="st0" d="M123.4,78.8l-0.6,1.6c-0.2,0.6-0.8,0.5-1.3,0.5c-0.3,0-0.6,0-0.9,0l0,0.9c-0.1,0.6,0.4,1.1,1,1.1h0.7
		c1.3,0,2.2-0.8,2.7-2.1l3.2-8.4l0.7-1.6c-0.4-0.2-1.1-0.5-1.5-0.5c-0.5,0-0.9,0.3-1.1,0.7l-2.3,6.2l-2.7-6.2
		c-0.2-0.5-0.6-0.7-1-0.7c-0.4,0-1.1,0.3-1.5,0.5l0.4,1l0,0l0,0l0,0l0.2,0.6l2.4,5.6C122.1,78.3,122.7,78.8,123.4,78.8z"/>
	<path class="st0" d="M156.2,70.4c-1.4,0-2.3,0.8-2.3,0.8c0.4-1.3,1.6-1.9,2.8-2.3c1.5-0.5,2.7-1,2.7-2c0-0.4-0.5-1-0.7-1.3
		c-0.8,0.6-1.5,1.2-2.5,1.4c-3.3,0.8-4.7,3-4.7,7c0,3.4,2,5.1,4.5,5.1c2.5,0,4.5-2,4.5-4.5C160.4,72.1,158.4,70.4,156.2,70.4z
		 M155.9,77.2c-1.3,0-2.4-1.2-2.4-2.5c0-1.4,1-2.4,2.4-2.4c1.3,0,2.3,1,2.3,2.4C158.3,76,157.3,77.2,155.9,77.2z"/>
	<path class="st0" d="M139.5,81.9v-1.1v-0.8v-1.9c0-0.6-0.5-1.1-1.2-1.1H138v-5.6c0-0.7-0.6-1.1-1.2-1.1h-5c-0.6,0-1.2,0.4-1.2,1
		c0,3.1,0,4.5-0.8,5.7h-0.3c-0.7,0-1.2,0.5-1.2,1.1v2.1v0.6v1.1h1.1c0.6,0,1.1-0.5,1.1-1.1V79h6.7v1.8c0,0.6,0.5,1.1,1.1,1.1H139.5z
		 M135.9,77h-3.5c0.4-1.2,0.5-2.7,0.6-4.7h3V77z"/>
	<path class="st0" d="M145,70.1c-2.6,0-4.6,2-4.6,4.5c0,2.5,2,4.6,4.6,4.6c2.6,0,4.6-2,4.6-4.6C149.6,72.1,147.5,70.1,145,70.1z
		 M145,77.2c-1.4,0-2.5-1.2-2.5-2.5c0-1.3,1.1-2.5,2.5-2.5c1.4,0,2.4,1.1,2.4,2.5C147.4,76,146.4,77.2,145,77.2z"/>
	<path class="st0" d="M248.6,28.8c-2.5,0-5.1,0.7-6.9,2.5c-0.1-0.3-0.2-0.5-0.3-0.7l0,0c-0.1-0.1-0.1-0.3-0.2-0.4l0,0
		c-0.1-0.2-0.3-0.3-0.4-0.5l0,0c-0.1-0.1-0.2-0.2-0.3-0.2l0,0c-0.1-0.1-0.2-0.1-0.3-0.2l0,0l-0.1,0l0,0l-0.1,0l0,0l-0.1,0l0,0
		l-0.1,0l0,0l-0.1,0l-0.1,0l-0.1,0l0,0l-0.1,0l0,0l-0.1,0l0,0l-0.1,0l0,0l-0.1,0l0,0l-0.1,0l0,0l-0.1,0l0,0l-0.1,0l0,0l-0.1,0l0,0
		l-0.1,0l0,0l0,0l-0.1,0l0,0l-0.1,0l0,0l-0.1,0l0,0l-0.1,0l-0.1,0l0,0l-0.1,0h0l-0.1,0l0,0l0,0c-0.1,0-0.1,0-0.2,0l0,0l-0.1,0l0,0
		l-0.1,0l0,0l-0.1,0l-0.1,0l0,0l-0.1,0h-3.9l0,6.8v27.6v2.5v4.5h4.6h0.4v0c2.3-0.2,4.1-2.2,4.1-4.5V55.2c1.2,0.7,3.4,1.5,5.9,1.5
		c7.2,0,13.2-6,13.2-13.8C261.8,34,255.8,28.8,248.6,28.8z M247.6,48.3c-3.1,0-5.4-2.3-5.4-5.4c0-3.1,2.2-5.6,5.4-5.6
		c3.1,0,5.4,2.6,5.4,5.6C253,45.8,250.6,48.3,247.6,48.3z"/>
	<path class="st0" d="M130.8,42.9c0-8.9-6-14-13.2-14c-2.5,0-5.1,0.7-6.9,2.5c-0.7-2.1-2.3-2.5-4.3-2.5h-3.9l0,6.8v27.6v2.5v4.5h4.6
		h0.4v0c2.3-0.2,4.1-2.2,4.1-4.5V55.2c1.2,0.7,3.4,1.5,5.9,1.5C124.7,56.7,130.8,50.7,130.8,42.9z M116.5,48.3
		c-3.1,0-5.4-2.3-5.4-5.4c0-3.1,2.2-5.6,5.4-5.6c3.1,0,5.4,2.6,5.4,5.6C121.9,45.8,119.5,48.3,116.5,48.3z"/>
	<path class="st0" d="M284.4,32.7l-5.5,15l-6.5-15.6c-2.1-4.9-7.2-2.9-10.5-1.4l2.2,4.9l7.4,16.7c0.9,2,2.4,2.9,4.3,3.2l-2,5.3
		c-0.3,0.9-0.9,1.3-1.7,1.3H271h-4.2v4.2c0,2.5,1.8,4.2,4.2,4.2h2.2c4.4,0,7.4-2.8,9-6.9l10.5-27.8c0.1-0.2,0.1-0.4,0.2-0.6l1.9-5
		C291.1,28.7,286.4,27.2,284.4,32.7z"/>
	<path class="st0" d="M177.6,52.2v-5.7h10.7v5.7v4.5h4.5c2.5,0,4.5-2.1,4.5-4.5V34.9v-1.5v-4.5h-4.5c-2.5,0-4.5,2.1-4.5,4.5v5h-10.7
		v-5v-4.5H173c-2.3,0-4.5,2.1-4.5,4.5v18.5v0.3v4.5h4.5C175.5,56.8,177.6,54.7,177.6,52.2z"/>
	<path class="st0" d="M152.5,56.5c4.7-0.8,7-2.6,8-3.4c1.2-1,2-2.2,1.6-4.1c-0.4-2-2.4-3.2-4.3-2.9c-2.4,0.4-2.5,2.1-6.8,2.9
		c-3.1,0.6-5.1-1.9-5.6-2.7l13.4-2.4c2.5-0.4,4-2.2,3.6-4.6c-1.1-6.3-7.6-11.7-15.2-10.4c-7.6,1.3-12.8,8.5-11.4,16.2
		C137.2,52.8,144.1,58,152.5,56.5z M148.6,36.2c3.4-0.6,5.3,1.7,5.9,3L144.4,41C144.4,39.8,145.4,36.8,148.6,36.2z"/>
	<path class="st0" d="M96.2,39.4c-1.1-6.3-7.6-11.7-15.2-10.4c-7.6,1.3-12.8,8.5-11.4,16.2c1.3,7.6,8.3,12.8,16.7,11.3
		c4.7-0.8,7-2.6,8-3.4c1.2-1,2-2.2,1.6-4.1c-0.4-2-2.4-3.2-4.3-2.9c-2.4,0.4-2.5,2.1-6.8,2.9c-3.1,0.6-5.1-1.9-5.6-2.7L92.6,44
		C95.1,43.6,96.6,41.8,96.2,39.4z M78.1,41c0-1.2,1.1-4.2,4.2-4.8c3.4-0.6,5.3,1.7,5.9,3L78.1,41z"/>
	<path class="st0" d="M61.7,41.7c0,0,2.1-1.6,2.1-4.7c0-4.6-3.4-8.3-10.3-8.3H43c-2.9,0-4.8,1.9-4.8,4.5v19v4.4l15.2,0
		c7.3,0,11.6-3.8,11.6-9.2C64.9,43.6,61.7,41.7,61.7,41.7z M47.1,36.2h6.2c1.2,0,1.9,0.8,1.9,1.7c0,1-0.7,1.9-1.9,1.9h-6.2V36.2z
		 M53.3,49.2h-6.2v-3.9h6.2c1.8,0,2.8,0.6,2.8,1.9C56.1,48.5,55.1,49.2,53.3,49.2z"/>
	<path class="st0" d="M26.9,21.7l-7.3,13l-7.7-12.9c-2.8-4.8-8-2-11.1,0l2.5,3.9l11.3,17.9l-1.8,2.9c-0.3,0.5-1,1.3-2,1.3H9.9H5.5
		v4.4c0,2.6,1.8,4.5,4.4,4.5h1.9c4.6,0,7.1-2.4,9.6-6.8l14.2-24.9c0.8-1.3,1.6-2.8,2.4-4.1C34.8,19.2,29.6,16.8,26.9,21.7z"/>
	<path class="st0" d="M215.4,40.2c-4.7,0-8.5,3.8-8.5,8.4c0,4.7,3.8,8.5,8.5,8.5c4.7,0,8.5-3.8,8.5-8.5
		C223.9,44,220.1,40.2,215.4,40.2z"/>
	<path class="st0" d="M207.1,14.9v22.7h1c8.7,0,15.8-6.2,15.8-14V0.8h-1C214.3,0.8,207.1,7.2,207.1,14.9z"/>
	<path class="st0" d="M316.2,46.4c-2.4,0-2.8,1.5-5.4,1.5c-3.2,0-5.6-2.6-5.6-5.5s2.2-5.6,5.2-5.6c2.9,0,3.1,1.3,5.4,1.3
		c2.3,0,4.2-1.9,4.2-4.1c0-2-1.2-3.3-2.6-4c-1.2-0.6-3.3-1.6-6.8-1.6c-8,0-14.2,6.1-14.2,13.9c0,7.8,6.2,14,14.2,14
		c3.6,0,6.1-1,7.5-1.8c1.1-0.6,2.4-1.9,2.4-4C320.4,48.2,318.4,46.4,316.2,46.4z"/>
</g>
</svg>
