<svg id="Capa_1" xmlns="http://www.w3.org/2000/svg" viewBox="0 0 512 318"><style>.st0{fill:#525556}</style><path class="st0" d="M499.1 238.7c-.8-.4-1.6-.7-2.4-.7-.8 0-1.6.2-2.4.7-.8.4-1.4 1-1.9 1.8s-.7 1.6-.7 2.5c0 .8.2 1.7.7 2.5.5.8 1.1 1.4 1.8 1.8.8.4 1.6.7 2.5.7.8 0 1.7-.2 2.4-.7.8-.4 1.4-1.1 1.8-1.8.4-.8.7-1.6.7-2.5 0-.9-.2-1.7-.7-2.5-.4-.7-1-1.3-1.8-1.8zm-1.2 7.1l-.5-.8c-.4-.7-.7-1.1-.9-1.3-.1-.1-.4-.2-.7-.2h-.5v2.3h-.9v-5.3h1.8c.6 0 1.1.1 1.3.2.3.1.5.3.7.5.2.2.2.5.2.8 0 .4-.1.7-.4 1-.3.3-.7.5-1.1.5.2.1.3.2.5.3.2.2.5.6.8 1l.7 1h-1zm-.5-3.2c-.2.2-.5.2-1 .2h-1.1v-1.6h1c.4 0 .7 0 .8.1.2.1.3.2.4.3.1.1.1.3.1.4.1.2 0 .4-.2.6zm-4.9-53.9c-.7.3-1.2.9-1.5 1.5s-.6 1.4-.6 2.1c0 .7.2 1.4.5 2.1.4.7.9 1.2 1.5 1.5.7.4 1.3.6 2 .6s1.4-.2 2-.6c.7-.4 1.2-.9 1.5-1.5.4-.7.5-1.3.5-2.1 0-.7-.2-1.4-.6-2.1-.4-.7-.9-1.2-1.5-1.5-.7-.4-1.3-.5-2-.5-.4 0-1.1.2-1.8.5zm3.7 1.7c.2.2.2.5.2.8 0 .4-.1.7-.4 1-.3.3-.7.4-1.1.5.2.1.3.2.5.3.2.2.5.5.8 1l.7 1.1h-1.1l-.5-.8c-.4-.7-.7-1.1-.9-1.2-.2-.1-.4-.2-.7-.2h-.5v2.3h-.9v-5.3h1.8c.6 0 1.1.1 1.4.2.3-.1.6.1.7.3zm-2 0c.4 0 .7.1.9.1.2.1.3.2.4.3.1.1.1.3.1.4 0 .2-.1.4-.3.6-.2.2-.5.2-1 .2h-1v-1.6h.9zM381 168.5c2.8 0 3.1.3 3.6.4.3 2.7-1.7 15.6-11.5 15.6-5.1 0-6.4-3.8-6.4-6.2-.1-4.4 2.3-9.8 14.3-9.8zm-264.5 0c2.8 0 3.1.3 3.6.4.3 2.7-1.7 15.6-11.5 15.6-5.1 0-6.4-3.8-6.4-6.2 0-4.4 2.4-9.8 14.3-9.8zM358.7 4.7c-39.5 0-75.6 15-102.8 39.6-27.1-24.5-63.2-39.5-102.7-39.5h-1C68.1 5.3 0 73.7 0 158c0 84.6 68.7 153.2 153.2 153.2 39.5 0 75.5-15 102.7-39.6-5.7-5.1-10.8-10.8-15.7-16.7h31.6c-4.8 5.8-10 11.3-15.6 16.4-.1.1-.3.2-.4.3 27.2 24.6 63.3 39.6 102.8 39.6 84.6 0 153.2-68.7 153.2-153.3v-.1C512 73.3 443.4 4.7 358.7 4.7zM242 60.2h29.1c4.3 5.2 8.3 10.7 11.9 16.4h-52c3.4-5.5 7.1-11.1 11-16.4zm-20 32.5h69.8c2.5 5.3 4.7 10.8 6.6 16.4h-84.7c.9-1.6 3.9-8 8.3-16.4zM62.6 197l9.3-58.6-21 58.6H39.6l-1.5-58.6-9.8 58.6H12.5l13-77.7h23.8l.8 47.7 16.1-47.7H92L79.2 197H62.6zm55.6-.1l.5-6.2c-.3 0-5.2 7.5-16.7 7.5-6 0-15.8-3.3-15.8-17.6 0-18.2 14.8-24.2 28.9-24.2 2.2 0 7 .4 7 .4s.5-1.1.5-4.1c0-4.9-4.4-5.6-10.5-5.6-10.7 0-17.8 2.9-17.8 2.9l2.4-14.1s8.6-3.6 19.8-3.6c5.8 0 22.4.6 22.4 19.7l-6.4 44.9h-14.3zm60.7-19.8c0 21.7-21 20.8-24.7 20.8-13.7 0-17.9-1.9-18.3-2l2.2-14.3c0-.1 6.9 2.5 14.5 2.5 4.4 0 10.1-.4 10.1-5.7 0-7.9-20.4-6-20.4-24.7 0-16.5 12.2-21.3 24.3-21.3 9.3 0 15.1 1.3 15.1 1.3l-2.1 14.4s-8.8-.7-11.1-.7c-5.8 0-9 1.3-9 5.3 0 8.2 19.4 4.2 19.4 24.4zm25.3 5.7c1.4 0 3.1-.5 4.2-.5l-2 13.9c-1.6.5-6.3 2.1-12.2 2.1-7.6.1-13-4.2-13-13.8 0-6.5 9.3-59.8 9.6-60.1H207l-1.7 9.5h8.1l-2.1 15.4h-8.6l-4.6 28.3c-.2 2.2.4 5.2 6.1 5.2zm35.8-50.7c17.9 0 23.3 13.1 23.3 23.9 0 4.3-2.2 14.9-2.2 14.9H228s-3.1 13.1 14.5 13.1c8.2 0 17.3-4 17.3-4l-2.9 15.7s-5.3 2.7-17.2 2.7c-13 0-28.2-5.5-28.2-28.5 0-20.1 12.1-37.8 28.5-37.8zm43.2 107h-54.4c-3.3-5.3-6.4-10.7-9-16.4h72.3c-2.6 5.7-5.6 11.1-8.9 16.4zm-3.6-42h-16.7l10.2-63.2h15.2l-1.5 9.2s5.4-10 12.7-10c2.1 0 3.2.2 3.2.2-2.2 4.4-4.1 8.5-6.1 18.9-11.4-4-12.2 17.9-17 44.9zm63.8-.9s-8.8 2.2-14.3 2.2c-19.5 0-29.4-13.4-29.4-33.8 0-30.7 18.3-47 37.1-47 8.5 0 18.4 4 18.4 4l-2.7 17.3s-6.7-4.7-15-4.7c-11.1 0-21.1 10.6-21.1 29.8 0 9.5 4.6 18.3 16.2 18.3 5.5 0 13.5-4 13.5-4l-2.7 17.9zm39.3.7l.5-6.2c-.3 0-5.2 7.5-16.7 7.5-6 0-15.8-3.3-15.8-17.6 0-18.2 14.8-24.2 28.9-24.2 2.2 0 7 .4 7 .4s.5-1.1.5-4.1c0-4.9-4.4-5.6-10.5-5.6-10.7 0-17.8 2.9-17.8 2.9l2.4-14.1s8.6-3.6 19.8-3.6c5.8 0 22.4.6 22.4 19.7l-6.4 44.9h-14.3zm33.9.2h-16.7l10.2-63.2h15.2l-1.5 9.2s5.4-10 12.7-10c2.1 0 3.1.2 3.1.2-2.2 4.4-4.1 8.5-6.1 18.9-11.3-4-12.2 17.9-16.9 44.9zm82.2-7.2c.5.8.7 1.6.7 2.5 0 .9-.2 1.7-.7 2.5-.4.8-1 1.4-1.8 1.8-.8.4-1.6.7-2.5.7-.8 0-1.7-.2-2.4-.7-.8-.5-1.4-1.1-1.8-1.8-.4-.8-.7-1.6-.7-2.5 0-.9.2-1.7.7-2.5.4-.8 1.1-1.4 1.8-1.8.8-.4 1.6-.7 2.4-.7.8 0 1.6.2 2.4.7.9.4 1.5 1 1.9 1.8zM475 141.2l3.5-21.8h16.4L482.4 197h-15.9l.7-5.8s-5.4 6.8-15.2 6.8c-13.6 0-20.2-13.1-20.2-26.5 0-20.7 12.5-38.7 27.4-38.7 9.7 0 15.8 8.4 15.8 8.4zm-227.4 16.7h-18.1c0-1.1 1.7-11.2 10.6-11.2 9.2 0 7.5 10.3 7.5 11.2zm214.5-9.4c5.9 0 8.9 4 8.9 13.5 0 8.6-4.3 20.1-13.1 20.1-5.9 0-8.6-4.9-8.6-12.7-.1-12.6 5.6-20.9 12.8-20.9z" id="Layer_1_copy_6_"/></svg>