<svg xmlns="http://www.w3.org/2000/svg" width="512" height="512" viewBox="0 0 16.877 16.877"><path d="M5.3 5.587l-3.896-3.9 1.51-1.51A.598.598 0 0 1 3.755.17l3.036 3.04a.6.6 0 0 1-.003.847l-.666.664-.62.62c-.075.077-.144.16-.203.247zm3.207 6.35a34.186 34.186 0 0 1-1.844-1.724A34.655 34.655 0 0 1 4.94 8.365c-.45-.52-.54-1.273-.304-1.907l-4-4c-.93.956-.812 3.33.208 5.414.438.902 1.006 1.716 1.593 2.49.586.768 1.23 1.494 1.906 2.176.68.68 1.4 1.327 2.17 1.913.775.59 1.59 1.154 2.487 1.59 2.088 1.02 4.462 1.132 5.418.2l-4-4c-.635.234-1.39.147-1.91-.302zm8.195 1.182l-3.036-3.038a.605.605 0 0 0-.848.003h-.002l-.667.666-.616.62c-.076.075-.16.142-.247.204l3.896 3.898c.504-.505 1.007-1.007 1.512-1.51a.594.594 0 0 0 .007-.843z" fill="#FFF"/></svg>