<svg id="Capa_1" xmlns="http://www.w3.org/2000/svg" viewBox="0 0 512 151"><style>.st0{fill:#525556}</style><path class="st0" d="M91.8 29.3c-1.7-3.4-4.3-6.1-7.6-8.2-3.4-2.1-7.5-3.6-12.1-4.4-4.7-.9-10.2-1.2-16.5-1.3H26.5c-3 0-6 2.4-6.7 5.3L.2 106c-.7 2.9 1.2 5.3 4.2 5.3h13.9c3 0 6-2.3 6.7-5.3l4.8-20.7c.6-2.9 3.6-5.3 6.7-5.3h4c17.1 0 30.3-3.5 39.7-10.5 9.5-7 14.2-16.2 14.2-27.7 0-5-.8-9.2-2.6-12.5zM61.7 57.2c-4.2 3.1-10.1 4.6-17.6 4.6h-3.4c-3 0-4.9-2.4-4.2-5.3l4.2-18.1c.6-2.9 3.6-5.3 6.6-5.3h4.6c5.3 0 9.4.9 12.1 2.7s4 4.6 4 8.3c.1 5.6-2.1 10-6.3 13.1zM253.4 46l-55.6 94c-1.8 2.9-5.7 5.3-8.7 5.3h-14.4c-3 0-4-2.4-2.2-5.3l12.4-21.5s1-1.2.1-8.3c-1.9-12.7-11.4-66.7-11.4-66.7-.7-2.9 1.2-5.3 4.2-5.3h12.5c3.8 0 6.9 2.5 7.6 5.5l6.2 37.5h2.3c1.9-3.4 21.9-37.7 21.9-37.7 1.9-2.9 5.8-5.3 8.8-5.3h16.7c5-.2-.4 7.8-.4 7.8zM345 29.6c-1.7-3.4-4.4-6.1-7.7-8.2-3.4-2.1-7.4-3.6-12.1-4.4-4.6-.8-10.1-1.3-16.4-1.3h-29.2c-3 .1-6 2.4-6.7 5.3l-19.6 85.4c-.7 2.9 1.2 5.3 4.2 5.3h14c3 0 6-2.4 6.7-5.3l4.7-20.7c.7-2.9 3.7-5.3 6.7-5.3h4c17.1 0 30.3-3.5 39.8-10.5 9.4-7 14.2-16.3 14.2-27.7 0-5.1-.8-9.3-2.6-12.6zm-30.1 27.9c-4.2 3-10.1 4.6-17.6 4.6h-3.5c-3 0-4.9-2.4-4.3-5.3l4.2-18.1c.6-2.9 3.6-5.3 6.7-5.3h4.5c5.4 0 9.4.9 12.1 2.7s4 4.6 4.1 8.3c.1 5.6-2 10-6.2 13.1zM159 41.5c-5.3-3-13.6-4.4-24.9-4.4-5.6 0-11.2.4-16.9 1.3-4.2.6-4.6.8-7.2 1.3-5.3 1.2-6.1 6.4-6.1 6.4l-1.7 7c-1 4.5 1.6 4.3 2.7 3.9 2.3-.7 3.6-1.4 8.3-2.5 4.5-1 9.3-1.8 13.1-1.7 5.6 0 9.8.6 12.7 1.8 2.8 1.2 4.2 3.3 4.2 6.3l-.2 2-2 1.2c-7.9.5-13.6 1.2-20.6 2.2-6.8.9-12.7 2.6-17.7 4.9-5.3 2.3-9.3 5.5-12 9.5s-4 8.9-4 14.6c0 5.4 1.9 9.8 5.7 13.2 3.8 3.4 8.7 5 14.7 5 3.8 0 6.7-.3 8.8-.8l6.8-2.3 5.7-3.2 5.3-3.5.1.1-.5 2.2v.1c-.6 2.7 1.1 5 3.7 5.2l.1.1H150l.2-.1c2.8-.3 5.4-2.6 6-5.2l10.2-44 .5-3.6.2-3.4c-.1-6.1-2.8-10.7-8.1-13.6zM136.5 91l-2.2 2.9-5.5 2.8c-2.6 1-5 1.6-7.3 1.6-3.4 0-6.1-.5-7.9-1.5l-2.7-5.2c0-2.8.7-5.1 2-6.8l5.9-4c2.5-.9 5.6-1.6 9.2-2.1 3.2-.4 9.5-1.1 10.3-1.1l1 1.7c-.1.8-1.9 8.3-2.8 11.7zm348.2-80.4h4.7v1.9h-4.7v7.9l.3 1.1.7.7 1.4.2 1.2-.2.9-.3h.1v2l-1.4.3-1.3.1-3.2-1.1-1.1-3.6v-7.2h-1.6v-1.9h1.6V6.7h2.3v3.9h.1zm-72.4 30.9c-5.3-3-13.6-4.5-24.9-4.5-5.6 0-11.2.4-16.9 1.3-4.2.6-4.6.7-7.2 1.3-5.3 1.1-6.1 6.5-6.1 6.5l-1.7 7c-1 4.5 1.6 4.3 2.7 3.9 2.3-.7 3.6-1.4 8.3-2.5 4.5-1 9.3-1.8 13.1-1.7 5.6 0 9.8.6 12.7 1.8 2.8 1.2 4.2 3.3 4.2 6.3l-.2 2-2 1.3c-8 .5-13.7 1.2-20.6 2.2-6.8.9-12.7 2.6-17.7 4.9-5.3 2.3-9.3 5.5-12 9.5s-4 8.9-4 14.5c0 5.4 1.9 9.9 5.7 13.3 3.8 3.4 8.7 5 14.7 5 3.7 0 6.7-.3 8.7-.8l6.7-2.3 5.8-3.2 5.2-3.5.1.1-.5 2.3h-.1c-.6 2.7 1 5 3.7 5.2v.1H402.9l.2-.1c2.8-.3 5.4-2.6 5.9-5.3l10.2-44 .5-3.6.3-3.4c.3-6-2.4-10.6-7.7-13.6zM389.9 91l-2.3 2.9-5.4 2.8c-2.6 1-5 1.6-7.3 1.6-3.5 0-6.2-.5-7.9-1.5l-2.7-5.2c0-2.8.7-5.1 2-6.8 1.4-1.7 3.4-3 6-4 2.5-.9 5.6-1.5 9.2-2.1 3.2-.4 9.4-1.1 10.3-1.1l1 1.7c-.3.9-2.1 8.3-2.9 11.7zm74.7-69.4L446 106.2l-.7 1c-1.1 2.4-3.5 4.3-6 4.3h-13l-.2-.3c-2.5-.4-4.1-2.3-3.5-5v-.1l.6-2.4 17.5-79.4.6-2.8.7-1.1c1.1-2.3 3.4-4.2 6-4.2h12.5c2.9.1 4.7 2.5 4.1 5.4zm46.3-10.1l1.1 3.8v8.8h-2.3v-7.8l-.2-1.7-.3-1.3-.8-.8-1.5-.3-1.9.5-1.9 1.2V24H501v-7.8l-.1-1.7-.3-1.3-.8-.8-1.5-.3-1.9.5-1.9 1.2v10.1h-2.3V10.6h2.3v1.5l2.1-1.4 2.3-.5 2.4.6 1.5 1.6 2.5-1.7 2.5-.5 3.1 1.3z" id="Layer_1_copy_5_"/></svg>