<svg id="Capa_1" xmlns="http://www.w3.org/2000/svg" viewBox="0 0 512 169.5"><style>.st0{fill:#525556}</style><path class="st0" d="M478.3 7h-32.2c-10 0-17.4 2.7-21.8 12.7l-61.8 139.9h43.7s7.1-18.8 8.7-22.9c4.8 0 47.2.1 53.3.1 1.2 5.3 5.1 22.9 5.1 22.9H512L478.3 7zM427 105.4c3.4-8.8 16.6-42.7 16.6-42.7-.2.4 3.4-8.8 5.5-14.6l2.8 13.2s8 36.5 9.6 44.1H427zm-61.5 4.2c-.3 31.7-28.7 52.2-72.5 52.2-18.7-.2-36.6-3.9-46.4-8.1l5.9-34.2 5.4 2.4c13.7 5.7 22.5 8 39.2 8 12 0 24.8-4.7 24.9-14.9.1-6.7-5.4-11.5-21.6-18.9-15.8-7.3-36.7-19.6-36.4-41.5.2-29.7 29.2-50.4 70.3-50.4 16.1 0 29 3.3 37.3 6.4L366 43.7l-3.8-1.8c-7.7-3.1-17.5-6.1-31.1-5.8-16.3 0-23.8 6.8-23.8 13.1-.1 7.2 8.8 11.9 23.4 18.9 23.9 10.9 35 24.2 34.8 41.5zM0 8.6l.5-3.1H65c8.7.3 15.7 3.1 18.1 12.4l14 67.5C83.4 50.1 50.2 20.7 0 8.6zM188.2 7l-65.5 152.4-44 .1L41.3 32.1C68.1 49.2 90.9 76.4 99 95.4l4.3 15.7L144.1 7h44.1zm16.8-.2h41.6l-26 152.7H179L205 6.8z" id="Layer_1_copy_24_"/></svg>